<svg width="43" height="24" viewBox="0 0 43 24" fill="none" xmlns="http://www.w3.org/2000/svg">
<g id="DIGITAL STUDIO">
<path d="M0.43579 13.0735V0.849535H3.10774C4.01864 0.849535 4.73723 0.990388 5.26353 1.27209C5.79994 1.54374 6.17948 1.95623 6.40214 2.50958C6.63493 3.06293 6.75132 3.7521 6.75132 4.5771V9.07432C6.75132 9.93956 6.63493 10.669 6.40214 11.2626C6.17948 11.8562 5.81006 12.3089 5.29389 12.6208C4.78784 12.9226 4.10467 13.0735 3.24438 13.0735H0.43579ZM2.15131 11.8511H3.12293C3.75043 11.8511 4.19576 11.7304 4.4589 11.4889C4.72205 11.2475 4.87893 10.8953 4.92953 10.4325C4.99026 9.96974 5.02062 9.41136 5.02062 8.7574V4.78838C5.02062 4.15454 4.98014 3.64143 4.89917 3.24906C4.8182 2.85668 4.64108 2.56995 4.36781 2.38885C4.09455 2.20776 3.6644 2.11721 3.07738 2.11721H2.15131V11.8511Z" fill="white"/>
<path d="M8.53278 13.0735V0.849535H10.2179V13.0735H8.53278Z" fill="white"/>
<path d="M15.1375 13.2244C14.3683 13.2244 13.7509 13.0635 13.2853 12.7415C12.8299 12.4095 12.4959 11.9316 12.2833 11.3078C12.0809 10.6841 11.9797 9.93453 11.9797 9.05923V4.96947C11.9797 4.07405 12.0708 3.31446 12.253 2.69068C12.4453 2.05684 12.7793 1.57392 13.255 1.24191C13.7408 0.909901 14.4138 0.743896 15.2741 0.743896C16.0433 0.743896 16.6607 0.874688 17.1263 1.13627C17.6019 1.38779 17.9461 1.78017 18.1586 2.3134C18.3711 2.83656 18.4774 3.50058 18.4774 4.30545V4.75819H16.8682V4.38091C16.8682 3.84768 16.8327 3.41506 16.7619 3.08305C16.691 2.74098 16.5443 2.48946 16.3216 2.32849C16.1091 2.15745 15.77 2.07193 15.3045 2.07193C14.7984 2.07193 14.429 2.18764 14.1962 2.41904C13.9735 2.65044 13.8319 2.96735 13.7711 3.36979C13.7205 3.76217 13.6952 4.20988 13.6952 4.71292V9.24032C13.6952 9.82386 13.7357 10.3118 13.8167 10.7042C13.9078 11.0966 14.0748 11.3883 14.3177 11.5795C14.5606 11.7706 14.9047 11.8662 15.35 11.8662C15.7953 11.8662 16.1395 11.7606 16.3824 11.5493C16.6253 11.338 16.7923 11.0261 16.8833 10.6136C16.9744 10.2011 17.02 9.68803 17.02 9.07432V8.2292H15.4563V7.0219H18.5685V13.0735H17.4906L17.3236 11.67C17.1617 12.1228 16.9086 12.495 16.5645 12.7868C16.2204 13.0786 15.7447 13.2244 15.1375 13.2244Z" fill="white"/>
<path d="M20.423 13.0735V0.849535H22.1082V13.0735H20.423Z" fill="white"/>
<path d="M25.4488 13.0735V2.11721H23.369V0.849535H29.1835V2.11721H27.1643V13.0735H25.4488Z" fill="white"/>
<path d="M29.6713 13.0735L32.2825 0.849535H33.9373L36.5637 13.0735H34.9393L34.3776 9.99489H31.8726L31.2806 13.0735H29.6713ZM32.1004 8.77249H34.1499L33.1175 3.26415L32.1004 8.77249Z" fill="white"/>
<path d="M37.8115 13.0735V0.849535H39.527V11.8511H42.6696V13.0735H37.8115Z" fill="white"/>
<path d="M2.11098 23.9175C1.65278 23.9175 1.26986 23.8199 0.962214 23.6247C0.661113 23.4295 0.432014 23.1594 0.274918 22.8146C0.117822 22.4697 0.0261827 22.0695 0 21.6141L0.981851 21.3505C1.00149 21.6303 1.04403 21.9004 1.10949 22.1606C1.18149 22.4209 1.29604 22.6356 1.45314 22.8048C1.61024 22.9675 1.82952 23.0488 2.11098 23.0488C2.39899 23.0488 2.615 22.9707 2.759 22.8146C2.90955 22.6519 2.98483 22.4209 2.98483 22.1216C2.98483 21.7637 2.90301 21.4774 2.73936 21.2627C2.57572 21.0415 2.36953 20.8202 2.1208 20.599L0.78548 19.4278C0.523654 19.2001 0.330556 18.9528 0.206189 18.686C0.0818209 18.4127 0.019637 18.0776 0.019637 17.6807C0.019637 17.1016 0.186552 16.6526 0.520381 16.3338C0.85421 16.015 1.30913 15.8556 1.88515 15.8556C2.19935 15.8556 2.47426 15.8979 2.70991 15.9825C2.9521 16.0605 3.15174 16.1842 3.30884 16.3533C3.47248 16.5225 3.60012 16.7372 3.69176 16.9975C3.78994 17.2513 3.8554 17.5506 3.88813 17.8954L2.94555 18.1492C2.92592 17.8889 2.88664 17.6514 2.82773 17.4367C2.76882 17.2155 2.66409 17.0398 2.51354 16.9097C2.36953 16.773 2.16007 16.7047 1.88515 16.7047C1.61023 16.7047 1.39423 16.7795 1.23713 16.9292C1.08658 17.0723 1.01131 17.2871 1.01131 17.5734C1.01131 17.8141 1.05058 18.0126 1.12913 18.1687C1.21422 18.3249 1.34841 18.4843 1.53169 18.647L2.87682 19.8182C3.17792 20.0785 3.44302 20.3908 3.67212 20.7552C3.90122 21.113 4.01577 21.5392 4.01577 22.0338C4.01577 22.4242 3.93395 22.7625 3.77031 23.0488C3.60666 23.3286 3.38084 23.5433 3.09283 23.693C2.81137 23.8426 2.48408 23.9175 2.11098 23.9175Z" fill="white"/>
<path d="M8.99038 23.8296V16.7437H7.64524V15.9239H11.4057V16.7437H10.0999V23.8296H8.99038Z" fill="white"/>
<path d="M17.4646 23.9175C16.8886 23.9175 16.4467 23.8036 16.1391 23.5759C15.8314 23.3481 15.622 23.0293 15.5107 22.6194C15.3994 22.2029 15.3438 21.7182 15.3438 21.1651V15.9239H16.4042V21.2139C16.4042 21.5523 16.4271 21.8613 16.4729 22.1411C16.5187 22.4209 16.6169 22.6421 16.7675 22.8048C16.9246 22.9675 17.1569 23.0488 17.4646 23.0488C17.7788 23.0488 18.0112 22.9675 18.1617 22.8048C18.3123 22.6421 18.4104 22.4209 18.4563 22.1411C18.5021 21.8613 18.525 21.5523 18.525 21.2139V15.9239H19.5756V21.1651C19.5756 21.7182 19.5199 22.2029 19.4087 22.6194C19.2974 23.0293 19.0879 23.3481 18.7803 23.5759C18.4792 23.8036 18.0406 23.9175 17.4646 23.9175Z" fill="white"/>
<path d="M23.9838 23.8296V15.9239H25.7118C26.3009 15.9239 26.7657 16.015 27.1061 16.1972C27.453 16.3729 27.6984 16.6396 27.8424 16.9975C27.993 17.3554 28.0683 17.8011 28.0683 18.3347V21.2432C28.0683 21.8028 27.993 22.2745 27.8424 22.6584C27.6984 23.0423 27.4595 23.3351 27.1257 23.5368C26.7984 23.732 26.3566 23.8296 25.8002 23.8296H23.9838ZM25.0933 23.039H25.7216C26.1275 23.039 26.4155 22.961 26.5857 22.8048C26.7559 22.6486 26.8573 22.4209 26.89 22.1216C26.9293 21.8223 26.949 21.4612 26.949 21.0382V18.4713C26.949 18.0614 26.9228 17.7295 26.8704 17.4758C26.818 17.222 26.7035 17.0365 26.5268 16.9194C26.35 16.8023 26.0718 16.7437 25.6922 16.7437H25.0933V23.039Z" fill="white"/>
<path d="M32.4605 23.8296V15.9239H33.5504V23.8296H32.4605Z" fill="white"/>
<path d="M40.1096 23.9175C39.5728 23.9175 39.1441 23.8134 38.8234 23.6051C38.5026 23.3969 38.2735 23.1009 38.1361 22.717C37.9986 22.3266 37.9299 21.8711 37.9299 21.3505V18.3542C37.9299 17.8336 37.9986 17.3879 38.1361 17.017C38.2801 16.6396 38.5092 16.3533 38.8234 16.1581C39.1441 15.9564 39.5728 15.8556 40.1096 15.8556C40.6463 15.8556 41.0718 15.9564 41.386 16.1581C41.7002 16.3598 41.926 16.6461 42.0635 17.017C42.2075 17.3879 42.2795 17.8336 42.2795 18.3542V21.3603C42.2795 21.8743 42.2075 22.3233 42.0635 22.7072C41.926 23.0911 41.7002 23.3904 41.386 23.6051C41.0718 23.8134 40.6463 23.9175 40.1096 23.9175ZM40.1096 23.0488C40.4041 23.0488 40.6267 22.9902 40.7773 22.8731C40.9278 22.7495 41.0293 22.5803 41.0816 22.3656C41.134 22.1444 41.1602 21.8874 41.1602 21.5945V18.1297C41.1602 17.8369 41.134 17.5864 41.0816 17.3782C41.0293 17.1634 40.9278 17.0008 40.7773 16.8901C40.6267 16.773 40.4041 16.7145 40.1096 16.7145C39.815 16.7145 39.5892 16.773 39.4321 16.8901C39.2816 17.0008 39.1801 17.1634 39.1277 17.3782C39.0754 17.5864 39.0492 17.8369 39.0492 18.1297V21.5945C39.0492 21.8874 39.0754 22.1444 39.1277 22.3656C39.1801 22.5803 39.2816 22.7495 39.4321 22.8731C39.5892 22.9902 39.815 23.0488 40.1096 23.0488Z" fill="white"/>
</g>
</svg>
