<svg width="76" height="45" viewBox="0 0 76 45" fill="none" xmlns="http://www.w3.org/2000/svg">
<path id="Vector (Traced)" fill-rule="evenodd" clip-rule="evenodd" d="M0 5.20999V10.42H19.8361H39.6722V5.20999V0H19.8361H0V5.20999ZM48.85 8.37695L39.2146 16.7466L35.2047 16.7502L31.1948 16.7537V21.7742V27.1737L37.1156 27.1733L43.0365 27.1728L58.1356 13.6333C66.4401 6.18645 73.2577 0.0725823 73.2858 0.0468388C73.3168 0.0184393 70.4132 0.00143019 65.9112 0.00362656L58.4855 0.00725312L48.85 8.37695ZM54.3502 23.566L50.2294 27.2166L55.9992 35.8247L62.2492 44.9946L69.1246 44.9973L76 45L74.6966 43.2506C73.6125 41.6864 58.5012 19.9506 58.4842 19.9307C58.477 19.9223 56.6167 21.5581 54.3502 23.566ZM0 39.79V45H19.8361H39.6722V39.79V34.58H19.8361H0V39.79Z" fill="white"/>
</svg>
