<svg width="65" height="28" viewBox="0 0 65 28" fill="none" xmlns="http://www.w3.org/2000/svg">
<path id="2tzCueg9JaQ 1 (Traced)" fill-rule="evenodd" clip-rule="evenodd" d="M1.12625 0.115492C0.733109 0.269537 0.31327 0.696047 0.147558 1.10972L0.0173683 1.4347L0.00279175 13.8148C-0.00659135 21.77 0.0078742 26.3022 0.0432283 26.495C0.121086 26.9192 0.253342 27.1715 0.561197 27.4829C0.958749 27.8851 1.24868 28.0002 1.86048 27.9989C2.32365 27.9978 2.39051 27.9828 2.7116 27.8084C3.11228 27.5908 3.41807 27.2468 3.57071 26.8419C3.67035 26.5777 3.67566 26.3268 3.67566 21.8927V17.2219L6.28673 17.2243L8.89779 17.2267L11.9976 22.2353C13.7024 24.9901 15.1979 27.348 15.3207 27.4752C15.6784 27.8453 16.0652 28 16.6333 28C17.0402 28 17.1535 27.9775 17.4265 27.8424C17.8301 27.6427 18.2132 27.2198 18.3432 26.8305C18.4741 26.4384 18.4674 25.8814 18.3275 25.5236C18.2402 25.3001 16.5314 22.4782 15.601 21.021C15.0953 20.2289 12.6112 16.1916 12.6245 16.1833C12.6329 16.178 12.8333 16.0539 13.0698 15.9077C15.0281 14.6962 16.4291 12.7137 16.9162 10.465C17.3237 8.58324 17.1005 6.67009 16.2697 4.92241C15.8134 3.96274 15.3645 3.33006 14.5699 2.52669C13.3533 1.29663 12.0852 0.584831 10.3499 0.157985C9.85817 0.0370342 9.75607 0.0339977 5.63047 0.0186326C1.52659 0.00332374 1.40595 0.00590976 1.12625 0.115492ZM22.6652 0.143746C22.2852 0.321599 21.9756 0.6159 21.7808 0.984437L21.632 1.26585V14.0138V26.7618L21.7601 27.0035C21.9562 27.3736 22.2354 27.6525 22.5924 27.8346L22.9166 28H31.4619H40.0072L40.3223 27.8441C40.6916 27.6614 41.058 27.283 41.2246 26.9124C41.3937 26.536 41.3948 25.7962 41.2268 25.4292C41.0562 25.0567 40.6901 24.6796 40.3223 24.4975L40.0072 24.3416L32.6487 24.3268L25.2903 24.3119V20.0915V15.8711H30.5023C35.0958 15.8711 35.7496 15.8606 36.0122 15.782C36.5601 15.618 36.9743 15.26 37.2082 14.7484C37.388 14.3547 37.3749 13.6398 37.18 13.221C37.0018 12.8381 36.7205 12.5452 36.3331 12.3394L36.0417 12.1846L30.666 12.1695L25.2903 12.1543V7.93543V3.71656L32.6208 3.7013L39.9514 3.68599L40.2668 3.53696C40.6526 3.35472 40.9863 3.02777 41.1899 2.63261C41.3214 2.37737 41.3433 2.2674 41.3442 1.85682C41.3451 1.45901 41.321 1.32624 41.2014 1.06886C41.0223 0.683439 40.696 0.341524 40.3376 0.163784L40.0631 0.0276362L31.5177 0.0138473L22.9724 0L22.6652 0.143746ZM53.7584 0.0852137C51.4414 0.367695 49.1935 1.27513 47.381 2.65963C44.5879 4.79312 42.7194 7.62092 42.0196 10.7736C41.6171 12.5864 41.5668 14.6723 41.8805 16.5376C42.3985 19.6175 43.9729 22.3995 46.4302 24.5767C48.5546 26.4592 50.8563 27.5127 53.7467 27.9257C54.523 28.0366 56.7813 28.0199 57.5726 27.8975C59.9252 27.5333 62.0447 26.6506 63.8682 25.2757C64.655 24.6824 64.8505 24.3714 64.88 23.6663C64.8949 23.3091 64.8739 23.149 64.778 22.8917C64.633 22.5022 64.2552 22.0932 63.8616 21.8993C63.3235 21.6343 62.5004 21.6932 62.0372 22.03C61.3015 22.5648 60.4883 23.0868 60.074 23.2901C57.2443 24.6787 53.6812 24.6468 50.9171 23.2082C48.9883 22.2043 47.2076 20.3584 46.3185 18.4413C45.2071 16.0447 45.0557 13.1807 45.905 10.6206C46.3777 9.19559 47.0694 8.07417 48.2148 6.8758C49.925 5.08647 51.9559 4.04738 54.2935 3.76558C55.112 3.66691 56.8325 3.72657 57.5938 3.87994C59.0882 4.18117 60.4807 4.8072 61.6746 5.71452C62.3653 6.23958 62.6834 6.37826 63.1891 6.375C64.4315 6.36695 65.2719 5.19515 64.9189 3.96318C64.7952 3.5315 64.6451 3.33873 64.1168 2.9335C62.032 1.33429 59.8466 0.417112 57.3324 0.0862271C56.5263 -0.0198652 54.6243 -0.0203721 53.7584 0.0852137ZM10.0564 3.93217C11.2866 4.3615 12.3538 5.29336 12.9326 6.44383C13.1305 6.83719 13.3385 7.59379 13.392 8.11475C13.5184 9.34609 13.172 10.5369 12.3786 11.5979C11.7763 12.4034 10.8033 13.0608 9.79142 13.346C9.3612 13.4672 9.23922 13.4727 6.51013 13.4937L3.67566 13.5155V8.612V3.70856L6.59391 3.72539L9.51216 3.74228L10.0564 3.93217ZM53.184 9.24732L53.0207 9.38892V14.3234V19.2578L53.1774 19.3937C53.3703 19.5609 53.489 19.5638 53.7909 19.4087C54.612 18.9868 61.8179 14.7592 61.943 14.626C62.0275 14.536 62.0966 14.3998 62.0966 14.3234C62.0966 14.2469 62.0275 14.1114 61.943 14.0222C61.8585 13.9329 61.0103 13.4095 60.058 12.8588C59.1057 12.3082 57.2875 11.2518 56.0175 10.5113C54.7475 9.77069 53.6272 9.15147 53.5279 9.13526C53.3887 9.11246 53.31 9.13807 53.184 9.24732Z" fill="white"/>
</svg>
