<svg width="83" height="16" viewBox="0 0 83 16" fill="none" xmlns="http://www.w3.org/2000/svg">
<g id="Frame 16338">
<path id="2tzCueg9JaQ 1 (Traced)" fill-rule="evenodd" clip-rule="evenodd" d="M2.89779 1.00593C1.84126 1.24504 0.659617 2.04335 0.250145 2.79473C-0.150495 3.52975 -0.0632478 4.49061 0.464276 5.15282C0.841744 5.62672 1.30378 5.82836 4.22822 6.79536C5.60761 7.25148 6.82281 7.68524 6.92871 7.75925C7.19795 7.94749 7.31452 8.36424 7.20247 8.73775C7.02939 9.31459 6.26315 9.90872 5.37511 10.1547C4.83763 10.3035 3.87831 10.3284 3.29561 10.2086C2.68175 10.0824 1.95508 9.68302 1.37005 9.15049C0.762549 8.59742 0.535276 8.53456 0.233471 8.83603C-0.0162672 9.08536 -0.000581652 9.43559 0.274236 9.74821C0.850577 10.4037 1.95691 11.0706 2.88592 11.3225C3.51801 11.4938 5.00336 11.4947 5.64117 11.3241C7.11989 10.9286 8.29291 9.86998 8.4388 8.79962C8.55099 7.97599 8.1151 7.12294 7.37203 6.7119C7.13889 6.583 5.78776 6.09173 4.36952 5.62023C2.95127 5.1488 1.70399 4.71927 1.59781 4.66572C1.20353 4.4669 1.07022 3.8399 1.32243 3.37023C1.4958 3.04731 2.20912 2.50603 2.70577 2.3204C4.2687 1.73644 5.91266 2.09922 7.17082 3.30582C7.66726 3.78191 7.84388 3.82318 8.17903 3.54146C8.34816 3.39937 8.39641 3.30201 8.39641 3.10312C8.39641 2.8837 8.33947 2.79367 7.99493 2.46828C7.31191 1.82321 6.61822 1.39835 5.78197 1.11275C5.18613 0.909279 3.58682 0.850013 2.89779 1.00593ZM17.6159 0.947802C15.6529 1.35602 14.1223 2.69073 13.5014 4.53548C13.3294 5.04635 13.3111 5.20023 13.3089 6.1582C13.3067 7.06664 13.3291 7.28873 13.467 7.72658C13.9007 9.10448 14.8688 10.246 16.1676 10.9109C17.01 11.3421 17.4701 11.4448 18.5696 11.4468C19.3739 11.4484 19.6064 11.4228 20.0532 11.2839C20.8245 11.0441 21.4593 10.6873 22.1011 10.1324L22.6672 9.64316V12.5783C22.6672 16.0321 22.6609 16.0003 23.3317 16.0003C23.4811 16.0003 23.6154 15.9425 23.7171 15.8343L23.8733 15.6683L23.8531 10.3841L23.8328 5.09991L23.6406 4.534C23.0476 2.78831 21.4876 1.36851 19.7649 1.00664C19.3101 0.911112 17.9688 0.874357 17.6159 0.947802ZM29.5282 1.06957L29.3706 1.23714L29.3936 4.40319L29.4166 7.56925L29.6018 8.1154C30.0686 9.49125 31.1417 10.6202 32.4871 11.1509C34.1365 11.8016 35.9513 11.4844 37.4684 10.2805L37.9976 9.86053V10.38C37.9976 10.6657 38.031 10.9951 38.0718 11.1119C38.2059 11.4962 38.7304 11.6061 39.0252 11.3117L39.1986 11.1386V6.20618C39.1986 1.32307 39.1971 1.27192 39.0522 1.08792C38.87 0.856644 38.4536 0.831671 38.1997 1.03677L38.0329 1.1716L37.9976 4.29984C37.9634 7.33142 37.9574 7.4412 37.8027 7.85147C37.3845 8.96049 36.3691 9.89065 35.2675 10.1739C34.717 10.3155 33.8389 10.317 33.3021 10.1774C32.1391 9.87486 31.0801 8.85487 30.7199 7.69039C30.5898 7.26948 30.5797 7.03044 30.5797 4.3622C30.5797 1.39983 30.5553 1.11056 30.2943 0.97108C30.0568 0.844155 29.6968 0.890437 29.5282 1.06957ZM49.0539 0.947802C47.295 1.31362 45.8805 2.41057 45.1673 3.96195C44.4922 5.43037 44.5659 7.41115 45.3461 8.76865C46.0379 9.97221 47.1628 10.8622 48.5241 11.283C49.2075 11.4942 50.5713 11.5156 51.2645 11.3258C51.9557 11.1366 52.7375 10.7213 53.4517 10.164L54.1052 9.65395V10.3632C54.1052 11.0531 54.1109 11.0781 54.3117 11.2787C54.577 11.5436 54.8896 11.5546 55.1369 11.3076L55.3145 11.1303L55.2927 8.11513L55.2709 5.09991L55.0494 4.48179C54.7731 3.71051 54.4698 3.20274 53.9376 2.62061C53.1892 1.80191 52.2511 1.24609 51.2301 1.01637C50.7611 0.910895 49.4326 0.868995 49.0539 0.947802ZM61.8379 1.07521L61.6645 1.24836V6.11636C61.6645 9.5338 61.6878 11.0357 61.7429 11.1564C61.9089 11.5202 62.3572 11.5801 62.659 11.2787L62.8655 11.0725V8.33031C62.8655 5.30592 62.8835 5.14054 63.3083 4.28961C63.7744 3.35563 64.9532 2.41565 65.9739 2.16392C66.6265 2.00306 67.6796 2.05047 68.3385 2.27045C68.9456 2.47315 69.2184 2.4457 69.3677 2.16695C69.4908 1.93716 69.4467 1.57184 69.2767 1.41394C68.8103 0.980886 66.9367 0.752932 65.8808 1.00078C65.0021 1.20708 63.9199 1.80149 63.1367 2.50808L62.8781 2.7414L62.8541 1.95642C62.832 1.23127 62.8174 1.16122 62.6633 1.03677C62.4255 0.844583 62.0513 0.862002 61.8379 1.07521ZM76.7477 0.947802C74.5869 1.39715 72.9656 2.95482 72.5077 5.0211C72.3259 5.84149 72.3867 7.08837 72.6456 7.85147C73.1223 9.25617 74.1172 10.3608 75.476 10.9935C76.2844 11.3699 76.6815 11.4499 77.7367 11.4485C78.4965 11.4475 78.7466 11.4189 79.185 11.2832C80.3206 10.9317 81.3044 10.2494 81.3044 9.81326C81.3044 9.69544 81.2385 9.51538 81.158 9.41315C80.9301 9.12389 80.6128 9.1598 80.0807 9.53521C79.3875 10.0243 78.7812 10.235 77.9622 10.2714C77.572 10.2888 77.0782 10.2651 76.8319 10.2173C75.4095 9.94117 74.1622 8.76717 73.7101 7.27907C73.6525 7.08942 73.6051 6.89463 73.6046 6.84609C73.604 6.77645 74.5555 6.75789 78.1285 6.75789H82.6531L82.8365 6.57474C83.0141 6.39737 83.0187 6.37126 82.9811 5.74229C82.8478 3.51091 81.1328 1.51335 78.9238 1.01637C78.4548 0.910895 77.1263 0.868995 76.7477 0.947802ZM19.674 2.19898C20.3048 2.36761 20.9041 2.73476 21.4686 3.2984C22.3865 4.21517 22.7051 5.0441 22.6492 6.36986C22.611 7.27526 22.4655 7.73434 21.9868 8.46047C21.4988 9.20072 20.7458 9.79435 19.9241 10.0868C19.4117 10.2691 18.3065 10.3349 17.7053 10.2189C16.5642 9.99881 15.399 9.0944 14.8641 8.01346C14.3945 7.06459 14.3086 5.97433 14.6226 4.94969C14.8076 4.34583 15.0628 3.9185 15.5476 3.401C16.1989 2.70563 16.9928 2.24999 17.8054 2.10522C18.2675 2.02288 19.1877 2.06903 19.674 2.19898ZM51.112 2.19898C51.7492 2.3693 52.3421 2.73334 52.9145 3.30574C53.8173 4.20839 54.1592 5.12834 54.0865 6.45911C54.0406 7.29861 53.869 7.81753 53.4182 8.47946C52.6323 9.63328 51.4093 10.2855 50.0316 10.2855C48.8155 10.2855 47.9595 9.9339 47.1121 9.08621C46.2389 8.2127 45.8913 7.37926 45.8908 6.1582C45.8903 4.97524 46.2913 4.04888 47.1634 3.21833C47.8223 2.59091 48.4738 2.24357 49.2546 2.10359C49.7063 2.02267 50.6295 2.07008 51.112 2.19898ZM78.8058 2.19898C79.664 2.42835 80.6106 3.12704 81.1379 3.92033C81.3843 4.29109 81.6423 4.89481 81.7551 5.36448L81.8016 5.5585H77.7027C75.4484 5.5585 73.6039 5.53233 73.6039 5.5003C73.6039 5.34776 73.9769 4.373 74.1456 4.08436C74.7144 3.11215 75.8671 2.29747 76.9484 2.10359C77.4 2.02267 78.3232 2.07008 78.8058 2.19898Z" fill="white"/>
</g>
</svg>
