<svg width="98" height="49" viewBox="0 0 98 49" fill="none" xmlns="http://www.w3.org/2000/svg">
<g id="Group 13">
<g id="Vector 2">
<path d="M82.9908 17.781H56.6177L61.44 23.471H64.3333V41.4892H70.6023V23.471H82.9258C83.0669 23.471 83.2061 23.5034 83.3327 23.5656C85.8046 24.7809 86.0171 28.2234 83.7135 29.7335L83.3851 29.9488C83.2253 30.0535 83.0385 30.1093 82.8475 30.1093H73.9779V41.4892H80.2469V36.2734C82.0109 36.2734 83.6141 37.2985 84.3543 38.8997L85.5514 41.4892H91.3381L87.9625 33.9026C92.589 30.0717 92.4465 22.8658 87.6122 19.3008C86.2736 18.3136 84.654 17.781 82.9908 17.781Z" fill="white"/>
</g>
<path id="Subtract" fill-rule="evenodd" clip-rule="evenodd" d="M8.55929 11.7155L38.9453 0L60.1891 24.9804L50.5328 49L5.14822 42.2745L0.320068 14.8922L2.28721 14.1337L7.07976 41.3142H12.8735L14.8048 32.1868L16.2532 41.3142H21.5642L24.9439 17.2946H18.6673L17.7017 25.9417H16.7361L16.2532 17.2946H12.3907L11.9079 25.9417H10.9423L8.55929 11.7155ZM25.9095 17.2946V41.3142H37.9799V36.0299H31.7033V32.1868H35.5658V26.9024H31.7033V23.0593H37.9799V17.2946H25.9095ZM38.9455 41.3142V17.2946H43.7062C45.6146 17.2946 47.4555 17.9975 48.874 19.2677L49.2861 19.6368C50.6945 20.898 51.4987 22.6947 51.4987 24.58C51.4987 25.7853 51.1695 26.968 50.5462 28.0016L50.0503 28.824L50.7524 29.323C52.4327 30.5172 53.43 32.4454 53.43 34.5C53.43 36.9097 51.0159 39.873 50.0503 40.3534C50.0503 40.3534 49.0039 41.3142 46.1878 41.3142H38.9455ZM43.7737 22.0985V25.9417H45.4237C45.8979 25.9417 46.3375 25.6934 46.5823 25.2874C46.7682 24.9791 46.8837 24.6449 46.9312 24.3052C47.1454 22.774 45.3198 22.0985 43.7737 22.0985ZM43.7737 31.7064V36.0299C45.3559 36.0299 47.3063 35.6745 47.4877 34.1028C47.5654 33.4305 47.3672 32.7773 46.9744 32.3864C46.4986 31.9131 45.819 31.7064 45.1479 31.7064H43.7737Z" fill="white"/>
</g>
</svg>
